<svg aria-hidden="true" style="position: absolute; width: 0; height: 0; overflow: hidden;" version="1.1" xmlns="http://www.w3.org/2000/svg" xmlns:xlink="http://www.w3.org/1999/xlink">
<defs>
<symbol id="icon-playstation" viewBox="0 0 32 32">
<title>playstation</title>
<path fill="#003791" style="fill: var(--color1, #003791)" d="M11.98 3.461v23.397l5.22 1.681v-19.623c0-0.92 0.405-1.535 1.059-1.321 0.848 0.241 1.013 1.085 1.013 2.007v7.835c3.255 1.591 5.816-0.003 5.816-4.204 0-4.316-1.501-6.233-5.917-7.769-1.743-0.597-4.971-1.581-7.188-2.003h-0.003zM18.188 25.117l8.395-3.033c0.953-0.344 1.101-0.833 0.328-1.091-0.781-0.256-2.183-0.185-3.143 0.164l-5.607 1.999v-3.18l0.32-0.113s1.601-0.56 3.884-0.82c2.261-0.24 5.047 0.039 7.249 0.881 2.464 0.801 2.721 1.963 2.101 2.763s-2.163 1.381-2.163 1.381l-11.392 4.143v-3.063l0.027-0.031zM2.411 24.8c-2.533-0.727-2.952-2.224-1.803-3.095 1.068-0.78 2.879-1.401 2.879-1.401l7.488-2.684v3.084l-5.367 1.963c-0.94 0.361-1.1 0.843-0.319 1.101 0.781 0.26 2.183 0.2 3.124-0.16l2.584-0.941v2.765c-0.161 0.039-0.341 0.059-0.521 0.097-2.584 0.441-5.327 0.261-8.049-0.639l-0.016-0.091z"></path>
</symbol>
<symbol id="icon-xbox" viewBox="0 0 32 32">
<title>xbox</title>
<path fill="#107c10" style="fill: var(--color2, #107c10)" d="M5.469 28.044c2.812 2.464 6.5 3.956 10.531 3.956 4.035 0 7.719-1.492 10.536-3.956 2.503-2.549-5.755-11.612-10.536-15.223-4.776 3.611-13.039 12.673-10.531 15.223zM20.349 8.836c3.333 3.948 9.979 13.751 8.101 17.216 2.219-2.745 3.549-6.237 3.549-10.047 0-4.453-1.82-8.483-4.76-11.381 0 0-0.036-0.029-0.109-0.056-0.084-0.029-0.203-0.060-0.375-0.060-0.789 0-2.647 0.579-6.407 4.328zM4.872 4.568c-0.076 0.027-0.109 0.055-0.115 0.056-2.937 2.899-4.757 6.928-4.757 11.381 0 3.805 1.331 7.297 3.548 10.044-1.868-3.473 4.772-13.268 8.107-17.213-3.76-3.751-5.621-4.327-6.408-4.327-0.175 0-0.297 0.028-0.375 0.061v-0.003zM16 4.735s-3.927-2.297-6.993-2.407c-1.204-0.044-1.939 0.393-2.028 0.452 2.86-1.919 5.9-2.78 9-2.78h0.021c3.112 0 6.14 0.861 9.021 2.78-0.091-0.061-0.82-0.496-2.027-0.452-3.067 0.109-6.995 2.399-6.995 2.399v0.008z"></path>
</symbol>
<symbol id="icon-origin" viewBox="0 0 32 32">
<title>origin</title>
<path fill="#f56c2d" style="fill: var(--color3, #f56c2d)" d="M16.784 4.147c1.585 0.095 3.136 0.512 4.556 1.225 1.375 0.685 2.6 1.633 3.608 2.792 1.001 1.153 1.763 2.471 2.287 3.951 0.521 1.479 0.731 3.037 0.619 4.669-0.044 0.848-0.18 1.669-0.408 2.464-0.223 0.784-0.524 1.545-0.899 2.271-0.585 1.132-1.239 2.203-1.96 3.216-0.717 1.012-1.5 1.953-2.349 2.824-0.851 0.871-1.751 1.672-2.709 2.403-0.959 0.725-1.961 1.384-3.005 1.972l-0.049 0.035c-0.044 0.024-0.095 0.035-0.145 0.031-0.084-0.020-0.157-0.064-0.212-0.129-0.055-0.067-0.084-0.148-0.083-0.231 0-0.039 0.005-0.079 0.016-0.113 0.011-0.031 0.028-0.059 0.049-0.083 0.369-0.524 0.675-1.075 0.915-1.647 0.241-0.579 0.404-1.18 0.491-1.812 0-0.043-0.020-0.085-0.051-0.113-0.028-0.033-0.071-0.051-0.113-0.051-0.352 0.043-0.704 0.071-1.060 0.083-0.355 0.012-0.709-0.004-1.061-0.049-1.585-0.095-3.137-0.513-4.557-1.224-1.375-0.687-2.599-1.635-3.607-2.793-1.005-1.16-1.781-2.5-2.287-3.951-0.525-1.497-0.736-3.085-0.62-4.669 0.044-0.848 0.18-1.669 0.408-2.464 0.228-0.797 0.528-1.54 0.9-2.24 0.585-1.152 1.241-2.235 1.959-3.248 0.719-1.009 1.5-1.952 2.348-2.824 0.852-0.869 1.752-1.669 2.711-2.4 0.96-0.728 1.96-1.385 3.004-1.972l0.051-0.033c0.044-0.027 0.093-0.036 0.145-0.033 0.087 0.021 0.159 0.068 0.211 0.131 0.057 0.068 0.083 0.141 0.083 0.232 0.001 0.036-0.004 0.076-0.016 0.112-0.009 0.031-0.027 0.057-0.048 0.081-0.364 0.515-0.673 1.068-0.916 1.649-0.241 0.577-0.4 1.18-0.488 1.811 0 0.044 0.016 0.084 0.048 0.115 0.029 0.032 0.072 0.049 0.113 0.049 0.349-0.044 0.703-0.071 1.060-0.081 0.363-0.012 0.715 0.004 1.064 0.047zM15.708 20.636c1.229 0.105 2.451-0.308 3.361-1.14 0.96-0.852 1.479-1.917 1.568-3.2 0.104-1.237-0.309-2.461-1.141-3.38-0.801-0.944-1.963-1.508-3.2-1.549-1.236-0.104-2.46 0.309-3.379 1.14-0.945 0.803-1.509 1.964-1.552 3.2-0.104 1.235 0.304 2.456 1.128 3.38 0.837 0.967 1.909 1.487 3.215 1.549z"></path>
</symbol>
<symbol id="icon-search" viewBox="0 0 32 32">
<title>search</title>
<path d="M31.008 27.231l-7.58-6.447c-0.784-0.705-1.622-1.029-2.299-0.998 1.789-2.096 2.87-4.815 2.87-7.787 0-6.627-5.373-12-12-12s-12 5.373-12 12 5.373 12 12 12c2.972 0 5.691-1.081 7.787-2.87-0.031 0.677 0.293 1.515 0.998 2.299l6.447 7.58c1.104 1.226 2.907 1.33 4.007 0.23s0.997-2.903-0.23-4.007zM12 20c-4.418 0-8-3.582-8-8s3.582-8 8-8 8 3.582 8 8-3.582 8-8 8z"></path>
</symbol>
</defs>
</svg>
